<?xml version="1.0" encoding="UTF-8"?>
<svg width="1920px" height="1920px" viewBox="0 0 1920 1920" xmlns="http://www.w3.org/2000/svg" xmlns:xlink="http://www.w3.org/1999/xlink" version="1.1">
 <!-- Generated by Pixelmator Pro 1.6.4 -->
 <g id="color-hash">
  <defs>
   <linearGradient id="linear-gradient" gradientUnits="userSpaceOnUse" x1="-37.599" y1="770.96" x2="-0.99" y2="130.991">
    <stop offset="0" stop-color="#ff686d" stop-opacity="1"/>
    <stop offset="1" stop-color="#f33d44" stop-opacity="1"/>
   </linearGradient>
  </defs>
  <path id="Ellipse" d="M-37.03 765.241 C25.561 768.806 84.443 628.735 94.487 452.385 104.531 276.034 61.933 130.184 -0.658 126.619 -63.248 123.054 -122.13 263.125 -132.174 439.475 -142.218 615.826 -99.62 761.676 -37.03 765.241 Z" fill-opacity="1" fill="url(#linear-gradient)" stroke="none"/>
  <defs>
   <linearGradient id="linear-gradient-1" gradientUnits="userSpaceOnUse" x1="-3.894" y1="129.519" x2="38.81" y2="-508.583">
    <stop offset="0" stop-color="#05bc29" stop-opacity="1"/>
    <stop offset="1" stop-color="#5bf877" stop-opacity="1"/>
   </linearGradient>
  </defs>
  <path id="Ellipse-Copy" d="M-0.658 126.619 C61.933 130.184 120.815 -9.887 130.859 -186.238 140.903 -362.588 98.305 -508.438 35.714 -512.003 -26.877 -515.568 -85.758 -375.497 -95.802 -199.147 -105.846 -22.796 -63.248 123.054 -0.658 126.619 Z" fill-opacity="1" fill="url(#linear-gradient-1)" stroke="none"/>
  <defs>
   <linearGradient id="linear-gradient-2" gradientUnits="userSpaceOnUse" x1="231.085" y1="30.505" x2="401.642" y2="257.431">
    <stop offset="0" stop-color="#1c70f2" stop-opacity="1"/>
    <stop offset="1" stop-color="#1ac9fb" stop-opacity="1"/>
   </linearGradient>
  </defs>
  <path id="Ellipse-Copy-1" d="M0.137 127.225 C-3.156 189.831 137.169 248.104 313.562 257.382 489.954 266.66 635.618 223.43 638.911 160.824 642.204 98.219 501.879 39.945 325.487 30.667 149.094 21.389 3.43 64.619 0.137 127.225 Z" fill-opacity="1" fill="url(#linear-gradient-2)" stroke="none"/>
  <defs>
   <linearGradient id="linear-gradient-3" gradientUnits="userSpaceOnUse" x1="-2.959" y1="126.177" x2="-641.558" y2="89.015">
    <stop offset="0" stop-color="#ffa800" stop-opacity="1"/>
    <stop offset="1" stop-color="#ffcc01" stop-opacity="1"/>
   </linearGradient>
  </defs>
  <path id="Ellipse-Copy-2" d="M-638.485 90.853 C-641.778 153.459 -501.453 211.732 -325.06 221.01 -148.668 230.288 -3.004 187.058 0.289 124.452 3.582 61.847 -136.743 3.573 -313.135 -5.705 -489.528 -14.983 -635.192 28.247 -638.485 90.853 Z" fill-opacity="1" fill="url(#linear-gradient-3)" stroke="none"/>
 </g>
 <g id="color-hash-Copy">
  <defs>
   <linearGradient id="linear-gradient-4" gradientUnits="userSpaceOnUse" x1="2261.098" y1="932.666" x2="1888.812" y2="570.152">
    <stop offset="0" stop-color="#05bc29" stop-opacity="1"/>
    <stop offset="1" stop-color="#5bf877" stop-opacity="1"/>
   </linearGradient>
  </defs>
  <path id="Ellipse-Copy-1" d="M2261.008 929.136 C2296.18 892.291 2240.536 782.085 2136.722 682.986 2032.909 583.886 1920.238 533.42 1885.066 570.265 1849.893 607.111 1905.537 717.317 2009.351 816.416 2113.165 915.515 2225.835 965.982 2261.008 929.136 Z" fill-opacity="1" fill="url(#linear-gradient-4)" stroke="none"/>
  <defs>
   <linearGradient id="linear-gradient-5" gradientUnits="userSpaceOnUse" x1="2259.522" y1="930.328" x2="1900.175" y2="1305.839">
    <stop offset="0" stop-color="#ffa800" stop-opacity="1"/>
    <stop offset="1" stop-color="#ffcc01" stop-opacity="1"/>
   </linearGradient>
  </defs>
  <path id="Ellipse-Copy-2-1" d="M1902.931 1304.906 C1939.929 1339.918 2049.891 1283.796 2148.539 1179.553 2247.187 1075.31 2297.164 962.422 2260.166 927.409 2223.168 892.397 2113.205 948.52 2014.557 1052.762 1915.909 1157.005 1865.932 1269.894 1902.931 1304.906 Z" fill-opacity="1" fill="url(#linear-gradient-5)" stroke="none"/>
 </g>
 <g id="color-hash-Copy-1">
  <defs>
   <linearGradient id="linear-gradient-6" gradientUnits="userSpaceOnUse" x1="-143.746" y1="2064.411" x2="-44.68" y2="1410.04">
    <stop offset="0" stop-color="#ffa800" stop-opacity="1"/>
    <stop offset="1" stop-color="#ffcc01" stop-opacity="1"/>
   </linearGradient>
  </defs>
  <path id="Ellipse-Copy-2-2" d="M-46.867 1413.031 C-111.052 1403.68 -184.443 1542.702 -210.79 1723.545 -237.137 1904.387 -206.463 2058.57 -142.278 2067.921 -78.093 2077.273 -4.702 1938.251 21.645 1757.408 47.992 1576.565 17.319 1422.382 -46.867 1413.031 Z" fill-opacity="1" fill="url(#linear-gradient-6)" stroke="none"/>
 </g>
 <g id="color-hash-Copy-2">
  <defs>
   <linearGradient id="linear-gradient-7" gradientUnits="userSpaceOnUse" x1="2187.072" y1="713.932" x2="1942.459" y2="287.475">
    <stop offset="0" stop-color="#ff686d" stop-opacity="1"/>
    <stop offset="1" stop-color="#f33d44" stop-opacity="1"/>
   </linearGradient>
  </defs>
  <path id="Ellipse-1" d="M2185.042 710.019 C2226.744 686.086 2205.884 571.434 2138.45 453.937 2071.016 336.441 1982.543 260.593 1940.841 284.527 1899.139 308.461 1919.999 423.113 1987.433 540.609 2054.867 658.106 2143.34 733.953 2185.042 710.019 Z" fill-opacity="1" fill="url(#linear-gradient-7)" stroke="none"/>
  <defs>
   <linearGradient id="linear-gradient-8" gradientUnits="userSpaceOnUse" x1="1939.977" y1="287.746" x2="1700.062" y2="-140.065">
    <stop offset="0" stop-color="#05bc29" stop-opacity="1"/>
    <stop offset="1" stop-color="#5bf877" stop-opacity="1"/>
   </linearGradient>
  </defs>
  <path id="Ellipse-Copy-2" d="M1940.841 284.527 C1982.543 260.593 1961.683 145.941 1894.249 28.444 1826.815 -89.052 1738.342 -164.9 1696.64 -140.966 1654.938 -117.032 1675.798 -2.38 1743.232 115.117 1810.666 232.613 1899.139 308.461 1940.841 284.527 Z" fill-opacity="1" fill="url(#linear-gradient-8)" stroke="none"/>
  <defs>
   <linearGradient id="linear-gradient-9" gradientUnits="userSpaceOnUse" x1="2049.444" y1="125.689" x2="2254.087" y2="200.008">
    <stop offset="0" stop-color="#1c70f2" stop-opacity="1"/>
    <stop offset="1" stop-color="#1ac9fb" stop-opacity="1"/>
   </linearGradient>
  </defs>
  <path id="Ellipse-Copy-1-1" d="M1941.605 284.583 C1965.72 326.181 2080.281 304.824 2197.483 236.88 2314.686 168.936 2390.149 80.135 2366.034 38.538 2341.919 -3.06 2227.359 18.297 2110.156 86.241 1992.953 154.184 1917.491 242.985 1941.605 284.583 Z" fill-opacity="1" fill="url(#linear-gradient-9)" stroke="none"/>
  <defs>
   <linearGradient id="linear-gradient-10" gradientUnits="userSpaceOnUse" x1="1939.177" y1="285.207" x2="1513.369" y2="528.891">
    <stop offset="0" stop-color="#ffa800" stop-opacity="1"/>
    <stop offset="1" stop-color="#ffcc01" stop-opacity="1"/>
   </linearGradient>
  </defs>
  <path id="Ellipse-Copy-2-3" d="M1516.113 528.784 C1540.228 570.382 1654.788 549.024 1771.991 481.081 1889.193 413.137 1964.656 324.336 1940.541 282.738 1916.427 241.141 1801.866 262.498 1684.664 330.442 1567.461 398.385 1491.998 487.186 1516.113 528.784 Z" fill-opacity="1" fill="url(#linear-gradient-10)" stroke="none"/>
 </g>
</svg>
